<svg xmlns="http://www.w3.org/2000/svg" width="60" height="60" viewBox="0 0 60 60" fill="none">
  <circle cx="30" cy="30" r="28" stroke="#0D6EFD" stroke-width="2" fill="none"/>
  <path d="M30 15C25.0294 15 21 19.0294 21 24C21 28.9706 25.0294 33 30 33C34.9706 33 39 28.9706 39 24C39 19.0294 34.9706 15 30 15ZM30 31C26.1325 31 23 27.8675 23 24C23 20.1325 26.1325 17 30 17C33.8675 17 37 20.1325 37 24C37 27.8675 33.8675 31 30 31Z" fill="#0D6EFD"/>
  <path d="M42 45C42 38.3726 36.6274 33 30 33C23.3726 33 18 38.3726 18 45" stroke="#0D6EFD" stroke-width="2" stroke-linecap="round"/>
  <path d="M30 33V45" stroke="#0D6EFD" stroke-width="2"/>
  <path d="M24 39H36" stroke="#0D6EFD" stroke-width="2"/>
</svg> 